<svg xmlns="http://www.w3.org/2000/svg" viewBox="0 0 512 512" role="img" aria-label="Cogi foreman icon">
  <rect width="512" height="512" rx="112" fill="#111827"/>
  <path d="M142 174 98 92c-8-15 9-31 23-20l88 68-67 34Z" fill="#f59e0b"/>
  <path d="m370 174 44-82c8-15-9-31-23-20l-88 68 67 34Z" fill="#f59e0b"/>
  <circle cx="256" cy="264" r="156" fill="#f59e0b"/>
  <path d="M138 248c15-70 58-112 118-112s103 42 118 112c-38-28-78-42-118-42s-80 14-118 42Z" fill="#fbbf24"/>
  <path d="M150 282c12 78 55 124 106 124s94-46 106-124c-32 34-67 51-106 51s-74-17-106-51Z" fill="#f8fafc"/>
  <circle cx="202" cy="266" r="18" fill="#111827"/>
  <circle cx="310" cy="266" r="18" fill="#111827"/>
  <path d="M232 320c0-17 48-17 48 0 0 13-11 24-24 24s-24-11-24-24Z" fill="#111827"/>
  <path d="M214 360c24 22 60 22 84 0" fill="none" stroke="#111827" stroke-width="16" stroke-linecap="round"/>
  <path d="M150 222h212" fill="none" stroke="#38bdf8" stroke-width="30" stroke-linecap="round"/>
  <path d="M190 188h132c12 0 22 10 22 22v24H168v-24c0-12 10-22 22-22Z" fill="#38bdf8"/>
  <path d="M218 188h76v-22c0-10-8-18-18-18h-40c-10 0-18 8-18 18v22Z" fill="#22c55e"/>
</svg>
